<?xml version="1.0" encoding="UTF-8" standalone="no"?>
<!DOCTYPE svg PUBLIC "-//W3C//DTD SVG 1.1//EN" "http://www.w3.org/Graphics/SVG/1.1/DTD/svg11.dtd">
<!-- Created with Vectornator (http://vectornator.io/) -->
<svg height="100%" stroke-miterlimit="10" style="fill-rule:nonzero;clip-rule:evenodd;stroke-linecap:round;stroke-linejoin:round;" version="1.1" viewBox="0 0 841.995 595.35" width="100%" xml:space="preserve" xmlns="http://www.w3.org/2000/svg" xmlns:vectornator="http://vectornator.io" xmlns:xlink="http://www.w3.org/1999/xlink">
<defs>
<radialGradient cx="279.371" cy="236.933" gradientTransform="matrix(1.62543 0 0 2.30734 -194.581 -324.788)" gradientUnits="userSpaceOnUse" id="RadialGradient" r="28.7575">
<stop offset="0" stop-color="#18cea4" stop-opacity="0.804895"/>
<stop offset="0.569103" stop-color="#4d3030" stop-opacity="0.91593"/>
<stop offset="0.781669" stop-color="#e48585" stop-opacity="0.957402"/>
<stop offset="1" stop-color="#31e78f"/>
</radialGradient>
</defs>
<g id="Layer-1" vectornator:layerName="Layer 1">
<g fill="#000000" opacity="1" stroke="none">
<path d="M323.604 233.152C322.692 233.621 321.735 233.973 320.733 234.207C319.73 234.442 318.675 234.559 317.569 234.559C313.636 234.559 310.635 233.263 308.565 230.672C306.494 228.081 305.459 224.337 305.459 219.442C305.459 214.533 306.494 210.783 308.565 208.192C310.635 205.6 313.636 204.305 317.569 204.305C318.675 204.305 319.736 204.422 320.752 204.656C321.768 204.891 322.718 205.242 323.604 205.711L323.604 212.117C322.614 211.206 321.654 210.539 320.723 210.115C319.792 209.692 318.832 209.481 317.842 209.481C315.733 209.481 314.141 210.317 313.067 211.99C311.992 213.664 311.455 216.147 311.455 219.442C311.455 222.723 311.992 225.2 313.067 226.873C314.141 228.546 315.733 229.383 317.842 229.383C318.832 229.383 319.792 229.171 320.723 228.748C321.654 228.325 322.614 227.658 323.604 226.746L323.604 233.152Z"/>
<path d="M336.533 221.199C333.63 220.093 331.664 218.93 330.635 217.713C329.606 216.496 329.092 214.858 329.092 212.801C329.092 210.158 329.938 208.081 331.631 206.57C333.324 205.06 335.648 204.305 338.604 204.305C339.945 204.305 341.286 204.458 342.627 204.764C343.968 205.07 345.296 205.522 346.611 206.121L346.611 211.746C345.375 210.874 344.118 210.21 342.842 209.754C341.566 209.298 340.303 209.07 339.053 209.07C337.66 209.07 336.592 209.35 335.85 209.91C335.108 210.47 334.736 211.271 334.736 212.313C334.736 213.12 335.007 213.787 335.547 214.315C336.087 214.842 337.217 215.425 338.936 216.063L341.416 217C343.76 217.859 345.485 218.999 346.592 220.418C347.699 221.837 348.252 223.628 348.252 225.789C348.252 228.732 347.383 230.929 345.645 232.381C343.906 233.833 341.279 234.559 337.764 234.559C336.319 234.559 334.87 234.386 333.418 234.041C331.966 233.696 330.563 233.185 329.209 232.508L329.209 226.551C330.746 227.645 332.233 228.458 333.672 228.992C335.111 229.526 336.533 229.793 337.94 229.793C339.359 229.793 340.459 229.471 341.24 228.826C342.022 228.182 342.412 227.28 342.412 226.121C342.412 225.249 342.152 224.484 341.631 223.826C341.11 223.169 340.355 222.651 339.365 222.274L336.533 221.199Z"/>
<path d="M360.615 221.199C357.712 220.093 355.746 218.93 354.717 217.713C353.688 216.496 353.174 214.858 353.174 212.801C353.174 210.158 354.02 208.081 355.713 206.57C357.406 205.06 359.73 204.305 362.686 204.305C364.027 204.305 365.368 204.458 366.709 204.764C368.05 205.07 369.378 205.522 370.694 206.121L370.694 211.746C369.457 210.874 368.2 210.21 366.924 209.754C365.648 209.298 364.385 209.07 363.135 209.07C361.742 209.07 360.674 209.35 359.932 209.91C359.19 210.47 358.819 211.271 358.819 212.313C358.819 213.12 359.089 213.787 359.629 214.315C360.169 214.842 361.299 215.425 363.018 216.063L365.498 217C367.842 217.859 369.567 218.999 370.674 220.418C371.781 221.837 372.334 223.628 372.334 225.789C372.334 228.732 371.465 230.929 369.727 232.381C367.988 233.833 365.361 234.559 361.846 234.559C360.401 234.559 358.952 234.386 357.5 234.041C356.048 233.696 354.645 233.185 353.291 232.508L353.291 226.551C354.828 227.645 356.315 228.458 357.754 228.992C359.193 229.526 360.615 229.793 362.022 229.793C363.441 229.793 364.541 229.471 365.322 228.826C366.104 228.182 366.494 227.28 366.494 226.121C366.494 225.249 366.234 224.484 365.713 223.826C365.192 223.169 364.437 222.651 363.447 222.274L360.615 221.199Z"/>
</g>
<g fill="url(#RadialGradient)" opacity="1" stroke="none">
<path d="M227.896 231.525C226.894 231.993 225.868 232.345 224.82 232.579C223.772 232.814 222.694 232.931 221.588 232.931C218.476 232.931 216.096 232.036 214.449 230.245C212.802 228.455 211.978 225.867 211.978 222.482C211.978 219.487 212.437 216.612 213.355 213.858C214.273 211.105 215.52 208.836 217.096 207.052C218.359 205.62 219.836 204.532 221.529 203.79C223.222 203.048 225.064 202.677 227.056 202.677C228.124 202.677 229.169 202.794 230.191 203.028C231.213 203.263 232.226 203.614 233.228 204.083L231.978 210.489C231.327 209.604 230.53 208.937 229.586 208.487C228.642 208.038 227.597 207.814 226.451 207.814C225.409 207.814 224.387 208.129 223.385 208.761C222.382 209.392 221.529 210.261 220.826 211.368C219.928 212.761 219.202 214.438 218.648 216.398C218.095 218.357 217.818 220.216 217.818 221.974C217.818 223.875 218.228 225.33 219.049 226.339C219.869 227.348 221.047 227.853 222.584 227.853C223.639 227.853 224.69 227.635 225.738 227.198C226.786 226.762 227.922 226.069 229.146 225.118L227.896 231.525Z"/>
<path d="M235.904 224.728L238.697 210.489L244.381 210.489L241.822 223.849C241.757 224.2 241.708 224.545 241.676 224.884C241.643 225.222 241.627 225.554 241.627 225.88C241.627 226.635 241.816 227.218 242.193 227.628C242.571 228.038 243.111 228.243 243.814 228.243C244.895 228.243 245.803 227.788 246.539 226.876C247.275 225.965 247.825 224.61 248.189 222.814L250.572 210.489L256.256 210.489L252.017 232.364L246.295 232.364L246.939 229.122C246.366 230.294 245.527 231.222 244.42 231.905C243.313 232.589 242.102 232.931 240.787 232.931C239.107 232.931 237.818 232.472 236.92 231.554C236.021 230.636 235.572 229.317 235.572 227.599C235.572 227.234 235.598 226.817 235.65 226.349C235.702 225.88 235.787 225.34 235.904 224.728Z"/>
<path d="M280.514 216.446C279.889 215.886 279.192 215.473 278.424 215.206C277.655 214.939 276.79 214.806 275.826 214.806C273.665 214.806 272.001 215.379 270.836 216.525C269.67 217.67 268.827 219.591 268.306 222.286L266.353 232.364L260.592 232.364L264.869 210.489L270.592 210.489L269.908 213.888C270.715 212.638 271.764 211.671 273.053 210.987C274.342 210.304 275.761 209.962 277.31 209.962C278.118 209.962 278.883 210.06 279.605 210.255C280.328 210.45 280.976 210.724 281.549 211.075L280.514 216.446Z"/>
<path d="M293.873 225.235C293.821 225.496 293.778 225.733 293.746 225.948C293.713 226.163 293.697 226.303 293.697 226.368C293.697 226.954 293.899 227.368 294.303 227.608C294.706 227.849 295.416 227.97 296.431 227.97L301.861 227.97L300.982 232.364L295.181 232.364C292.512 232.364 290.624 232 289.517 231.271C288.411 230.541 287.857 229.33 287.857 227.638C287.857 227.338 287.89 226.961 287.955 226.505C288.02 226.049 288.111 225.535 288.228 224.962L292.193 206.368L286.217 206.368L287.056 201.974L298.736 201.974L293.873 225.235Z"/>
</g>
</g>
</svg>
